<?xml version="1.0" standalone="no"?>
<!DOCTYPE svg PUBLIC "-//W3C//DTD SVG 20010904//EN"
 "http://www.w3.org/TR/2001/REC-SVG-20010904/DTD/svg10.dtd">
<svg version="1.0" xmlns="http://www.w3.org/2000/svg"
 width="222.000000pt" height="72.000000pt" viewBox="0 0 222.000000 72.000000"
 preserveAspectRatio="xMidYMid meet">
<metadata>
Created by potrace 1.11, written by Peter Selinger 2001-2013
</metadata>
<g transform="translate(0.000000,72.000000) scale(0.100000,-0.100000)"
fill="#000000" stroke="none">
<path d="M257 544 c-4 -4 -7 -72 -7 -151 0 -144 0 -144 23 -141 20 3 22 9 25
66 l3 62 39 0 40 0 0 -64 c0 -46 4 -65 14 -69 30 -12 37 19 34 159 -3 131 -4
139 -23 139 -18 0 -20 -8 -23 -62 l-3 -63 -39 0 -39 0 -3 62 c-2 47 -7 64 -18
66 -9 1 -19 0 -23 -4z"/>
<path d="M672 538 c-18 -18 -16 -211 3 -247 16 -32 33 -41 79 -41 38 0 82 40
73 64 -8 20 -31 20 -47 1 -16 -20 -56 -19 -64 1 -3 9 -6 38 -6 65 l0 49 51 0
c47 0 50 2 47 23 -3 19 -10 22 -50 25 -44 3 -47 5 -50 34 -3 35 -17 45 -36 26z"/>
<path d="M489 451 c-26 -26 -29 -36 -29 -91 0 -77 26 -110 89 -110 58 0 81 33
81 114 -1 64 -10 85 -47 104 -35 19 -63 14 -94 -17z"/>
<path d="M895 457 c-45 -38 -47 -145 -5 -187 27 -27 91 -27 115 0 22 24 13 55
-13 45 -37 -16 -64 -17 -73 -4 -16 25 -10 29 51 29 54 0 60 2 66 24 8 34 -20
94 -51 106 -40 15 -61 12 -90 -13z"/>
<path d="M1175 455 c-14 -13 -25 -35 -25 -49 0 -40 25 -58 95 -68 11 -2 20
-10 20 -18 0 -21 -56 -26 -67 -6 -15 26 -48 20 -48 -8 0 -33 35 -56 86 -56 34
0 47 5 63 26 12 15 21 35 21 44 0 31 -34 62 -75 69 -21 3 -40 12 -43 19 -6 20
29 26 58 9 25 -15 29 -15 41 -1 11 14 9 20 -14 40 -37 31 -81 31 -112 -1z"/>
<path d="M2106 384 c-10 -10 -16 -33 -16 -63 0 -60 20 -81 78 -81 l42 0 0 63
c0 49 -4 68 -18 80 -23 21 -66 22 -86 1z"/>
</g>
</svg>
